<svg xmlns="http://www.w3.org/2000/svg" xmlns:xlink="http://www.w3.org/1999/xlink" width="420" height="520" viewBox="0 0 420 520">
<rect width="420" height="520" fill="#505050"/>
<g transform="translate(10 10)">
<rect x="0" y="0" width="400" height="500" fill="#ffffff" stroke="#000000" stroke-width="2"/>
<rect x="225" y="250" width="25" height="25" fill="#0000ff"/>
<rect x="250" y="250" width="25" height="25" fill="#0000ff"/>
<rect x="275" y="250" width="25" height="25" fill="#0000ff"/>
<rect x="300" y="250" width="25" height="25" fill="#0000ff"/>
<rect x="225" y="275" width="25" height="25" fill="#0000ff"/>
<rect x="250" y="275" width="25" height="25" fill="#0000ff"/>
<rect x="275" y="275" width="25" height="25" fill="#0000ff"/>
<rect x="300" y="275" width="25" height="25" fill="#0000ff"/>
<path d="M 225 251.5 H 250 M 226.5 250 V 275" fill="none" stroke="#ff0000" stroke-width="3"/>
<path d="M 250 251.5 H 275" fill="none" stroke="#ff0000" stroke-width="3"/>
<path d="M 275 251.5 H 300" fill="none" stroke="#ff0000" stroke-width="3"/>
<path d="M 300 251.5 H 325 M 323.5 250 V 275" fill="none" stroke="#ff0000" stroke-width="3"/>
<path d="M 225 298.5 H 250 M 226.5 275 V 300" fill="none" stroke="#ff0000" stroke-width="3"/>
<path d="M 250 298.5 H 275" fill="none" stroke="#ff0000" stroke-width="3"/>
<path d="M 275 298.5 H 300" fill="none" stroke="#ff0000" stroke-width="3"/>
<path d="M 300 298.5 H 325 M 323.5 275 V 300" fill="none" stroke="#ff0000" stroke-width="3"/>
<text x="28" y="365" font-family="Arial, Helvetica, sans-serif" font-size="15" fill="#000000" text-anchor="start">Outlined box above</text>
</g>
</svg>
